<svg width="2068" height="1296" viewBox="0 0 2068 1296" fill="none" xmlns="http://www.w3.org/2000/svg">
<rect width="2068" height="1296" fill="#092F53"/>
<g clip-path="url(#clip0_414_18265)">
<rect width="1956" height="1184" transform="translate(56 56)" fill="#092F53"/>
<circle cx="648" cy="648" r="590.5" stroke="white" stroke-width="3"/>
<circle cx="1420" cy="648" r="590.5" stroke="white" stroke-width="3"/>
<path d="M500 86L533.228 188.265H640.756L553.764 251.469L586.992 353.734L500 290.531L413.008 353.734L446.236 251.469L359.244 188.265H466.772L500 86Z" fill="white"/>
<path d="M533.229 188.266H640.757L553.764 251.469L586.992 353.734L500 290.531L413.008 353.734L446.236 251.469L359.243 188.266H466.771L500 86L533.229 188.266ZM468.951 191.266H368.477L449.763 250.323L418.714 345.88L500 286.823L581.285 345.88L550.237 250.323L631.523 191.266H531.049L500 95.708L468.951 191.266Z" fill="#092F53"/>
<path d="M242 362L275.228 464.265H382.756L295.764 527.469L328.992 629.734L242 566.531L155.008 629.734L188.236 527.469L101.244 464.265H208.772L242 362Z" fill="white"/>
<path d="M275.229 464.266H382.757L295.764 527.469L328.992 629.734L242 566.531L155.008 629.734L188.236 527.469L101.243 464.266H208.771L242 362L275.229 464.266ZM210.951 467.266H110.477L191.763 526.323L160.714 621.88L242 562.823L323.285 621.88L292.237 526.323L373.523 467.266H273.049L242 371.708L210.951 467.266Z" fill="#092F53"/>
<path d="M242 638L275.228 740.265H382.756L295.764 803.469L328.992 905.734L242 842.531L155.008 905.734L188.236 803.469L101.244 740.265H208.772L242 638Z" fill="white"/>
<path d="M275.229 740.266H382.757L295.764 803.469L328.992 905.734L242 842.531L155.008 905.734L188.236 803.469L101.243 740.266H208.771L242 638L275.229 740.266ZM210.951 743.266H110.477L191.763 802.323L160.714 897.88L242 838.823L323.285 897.88L292.237 802.323L373.523 743.266H273.049L242 647.708L210.951 743.266Z" fill="#092F53"/>
<path d="M500 914L533.228 1016.27H640.756L553.764 1079.47L586.992 1181.73L500 1118.53L413.008 1181.73L446.236 1079.47L359.244 1016.27H466.772L500 914Z" fill="white"/>
<path d="M533.229 1016.27H640.757L553.764 1079.47L586.992 1181.73L500 1118.53L413.008 1181.73L446.236 1079.47L359.243 1016.27H466.771L500 914L533.229 1016.27ZM468.951 1019.27H368.477L449.763 1078.32L418.714 1173.88L500 1114.82L581.285 1173.88L550.237 1078.32L631.523 1019.27H531.049L500 923.708L468.951 1019.27Z" fill="#092F53"/>
<path d="M1568 86L1601.23 188.265H1708.76L1621.76 251.469L1654.99 353.734L1568 290.531L1481.01 353.734L1514.24 251.469L1427.24 188.265H1534.77L1568 86Z" fill="white"/>
<path d="M1601.23 188.266H1708.76L1621.76 251.469L1654.99 353.734L1568 290.531L1481.01 353.734L1514.24 251.469L1427.24 188.266H1534.77L1568 86L1601.23 188.266ZM1536.95 191.266H1436.48L1517.76 250.323L1486.71 345.88L1568 286.823L1649.29 345.88L1618.24 250.323L1699.52 191.266H1599.05L1568 95.708L1536.95 191.266Z" fill="#092F53"/>
<path d="M1827 362L1860.23 464.265H1967.76L1880.76 527.469L1913.99 629.734L1827 566.531L1740.01 629.734L1773.24 527.469L1686.24 464.265H1793.77L1827 362Z" fill="white"/>
<path d="M1860.23 464.266H1967.76L1880.76 527.469L1913.99 629.734L1827 566.531L1740.01 629.734L1773.24 527.469L1686.24 464.266H1793.77L1827 362L1860.23 464.266ZM1795.95 467.266H1695.48L1776.76 526.323L1745.71 621.88L1827 562.823L1908.29 621.88L1877.24 526.323L1958.52 467.266H1858.05L1827 371.708L1795.95 467.266Z" fill="#092F53"/>
<path d="M1827 638L1860.23 740.265H1967.76L1880.76 803.469L1913.99 905.734L1827 842.531L1740.01 905.734L1773.24 803.469L1686.24 740.265H1793.77L1827 638Z" fill="white"/>
<path d="M1860.23 740.266H1967.76L1880.76 803.469L1913.99 905.734L1827 842.531L1740.01 905.734L1773.24 803.469L1686.24 740.266H1793.77L1827 638L1860.23 740.266ZM1795.95 743.266H1695.48L1776.76 802.323L1745.71 897.88L1827 838.823L1908.29 897.88L1877.24 802.323L1958.52 743.266H1858.05L1827 647.708L1795.95 743.266Z" fill="#092F53"/>
<path d="M1567 914L1600.23 1016.27H1707.76L1620.76 1079.47L1653.99 1181.73L1567 1118.53L1480.01 1181.73L1513.24 1079.47L1426.24 1016.27H1533.77L1567 914Z" fill="white"/>
<path d="M1600.23 1016.27H1707.76L1620.76 1079.47L1653.99 1181.73L1567 1118.53L1480.01 1181.73L1513.24 1079.47L1426.24 1016.27H1533.77L1567 914L1600.23 1016.27ZM1535.95 1019.27H1435.48L1516.76 1078.32L1485.71 1173.88L1567 1114.82L1648.29 1173.88L1617.24 1078.32L1698.52 1019.27H1598.05L1567 923.708L1535.95 1019.27Z" fill="#092F53"/>
<path d="M905.387 727.833C926.787 665.886 948.16 603.926 969.627 542.006C978.507 542.006 987.4 541.993 996.28 542.006C1017.33 603.953 1038.6 665.833 1059.75 727.753C1061.57 732.859 1063.4 738.326 1067.55 742.073C1071.33 745.699 1076.64 746.846 1081.55 748.139C1081.52 750.273 1081.52 752.419 1081.55 754.566C1054.37 754.606 1027.19 754.593 1000.01 754.579C1000 752.433 999.987 750.299 999.973 748.166C1004.43 746.913 1009.4 745.833 1012.6 742.206C1015.56 737.713 1014.52 731.966 1012.97 727.166C1008.49 713.579 1004.21 699.926 999.68 686.353C976.107 686.539 952.533 686.339 928.96 686.459C924.373 700.259 919.547 713.979 915.013 727.806C913.893 732.033 912.547 737.059 915.093 741.033C918.427 745.286 924.187 746.019 929 747.686C929.027 749.979 929.067 752.273 929.093 754.579C912.733 754.593 896.36 754.593 880 754.579C880 752.299 880 750.019 880.027 747.753C886.147 745.806 892.92 744.753 897.933 740.433C901.787 737.219 903.733 732.433 905.387 727.833ZM965.213 581.353C964.213 585.659 962.587 589.779 961.16 593.953C951.52 621.686 941.92 649.419 932.32 677.153C953.773 677.033 975.227 677.113 996.693 677.113C986.133 645.219 976.173 613.099 965.213 581.353Z" fill="white"/>
<path d="M1110.28 427L1128.8 484.006H1188.74L1140.25 519.238L1158.77 576.244L1110.28 541.012L1061.78 576.244L1080.31 519.238L1031.81 484.006H1091.75L1110.28 427Z" fill="white"/>
<path d="M1128.8 484.006H1188.74L1140.25 519.238L1158.77 576.244L1110.28 541.012L1061.78 576.244L1080.31 519.238L1031.81 484.006H1091.75L1110.28 427L1128.8 484.006ZM1093.93 487.006H1041.05L1083.83 518.092L1067.49 568.389L1110.28 537.304L1153.06 568.389L1136.72 518.092L1179.5 487.006H1126.62L1110.28 436.709L1093.93 487.006Z" fill="#092F53"/>
</g>
<defs>
<clipPath id="clip0_414_18265">
<rect width="1956" height="1184" fill="white" transform="translate(56 56)"/>
</clipPath>
</defs>
</svg>
