<svg width="93" height="24" viewBox="0 0 93 24" fill="none" xmlns="http://www.w3.org/2000/svg">
<g clip-path="url(#clip0_363_167)">
<mask id="mask0_363_167" style="mask-type:luminance" maskUnits="userSpaceOnUse" x="0" y="0" width="93" height="24">
<path d="M92.9232 0H0V24H92.9232V0Z" fill="white"/>
</mask>
<g mask="url(#mask0_363_167)">
<path d="M34.7576 13.2133C34.7576 13.5136 34.7576 13.814 34.6545 14.2143H26.7128C26.9191 15.0152 27.2285 15.5157 27.7442 16.0163C28.2599 16.4167 28.9819 16.6169 29.8069 16.6169C30.9415 16.6169 31.8697 16.2165 32.4886 15.4156L34.2419 16.9172C33.2105 18.2186 31.6634 18.9193 29.7038 18.9193C28.1567 18.9193 26.8159 18.4188 25.6814 17.4177C24.65 16.4167 24.1343 15.1153 24.1343 13.4135C24.1343 11.8118 24.65 10.5105 25.6814 9.50937C26.7128 8.50833 27.9505 8.00781 29.4975 8.00781C31.0446 8.00781 32.3854 8.50833 33.3137 9.50937C34.2419 10.4103 34.7576 11.6116 34.7576 13.2133ZM31.2509 10.7106C30.8383 10.3103 30.2195 10.11 29.4975 10.11C28.7756 10.11 28.1567 10.3103 27.7442 10.7106C27.2285 11.1111 26.9191 11.6116 26.7128 12.3123H32.1791C32.076 11.6116 31.7666 11.011 31.2509 10.7106Z" fill="white"/>
<path d="M44.4517 2.70312H46.9271V18.72H44.5549V17.3185C43.7298 18.4197 42.5953 18.9202 41.0482 18.9202C39.5011 18.9202 38.2634 18.4197 37.232 17.4186C36.2006 16.4176 35.7881 15.1162 35.7881 13.5145C35.7881 11.9128 36.3038 10.6115 37.3352 9.61038C38.3665 8.60934 39.6042 8.00874 41.0482 8.00874C42.5953 8.00874 43.6267 8.50926 44.4517 9.41022V2.70312ZM39.1916 15.7168C39.8105 16.3175 40.5325 16.6178 41.4607 16.6178C42.389 16.6178 43.111 16.3175 43.7298 15.7168C44.3486 15.1162 44.658 14.3153 44.658 13.4144C44.658 12.5135 44.3486 11.6125 43.7298 11.0119C43.111 10.4113 42.389 10.1109 41.4607 10.1109C40.5325 10.1109 39.8105 10.4113 39.1916 11.0119C38.5728 11.6125 38.2634 12.4133 38.2634 13.4144C38.2634 14.3153 38.5728 15.1162 39.1916 15.7168Z" fill="white"/>
<path d="M57.2413 8.00881H59.7166V17.5188C59.7166 19.2206 59.3041 20.6221 58.3758 21.6231C57.4476 22.6242 56.1068 23.1247 54.1471 23.1247C52.4969 23.1247 50.9499 22.7243 49.7122 22.0236L50.331 19.9213C51.053 20.3218 51.6718 20.522 52.1875 20.7222C52.7032 20.9224 53.322 21.0225 54.044 21.0225C55.0754 21.0225 55.9005 20.7222 56.4162 20.2216C56.9319 19.7211 57.2413 19.1205 57.2413 18.3196V17.2185C56.4162 18.1194 55.2817 18.5199 53.9409 18.5199C52.3938 18.5199 51.1561 18.0193 50.1247 17.0183C49.0933 16.0173 48.5776 14.8159 48.5776 13.2143C48.5776 11.6126 49.0933 10.4113 50.0216 9.31015C50.9499 8.30911 52.1875 7.80859 53.7346 7.80859C55.0754 7.80859 56.2099 8.20897 57.1382 9.10993V8.00881H57.2413ZM54.2503 16.2174C55.1785 16.2174 55.9005 15.9171 56.4162 15.3165C57.0351 14.7159 57.2413 14.0151 57.2413 13.1142C57.2413 12.2132 56.9319 11.5125 56.4162 10.9119C55.7974 10.3112 55.0754 10.0109 54.2503 10.0109C53.322 10.0109 52.6 10.3112 51.9812 10.9119C51.3624 11.5125 51.1561 12.2132 51.1561 13.1142C51.1561 14.0151 51.4655 14.8159 51.9812 15.3165C52.6 16.0173 53.322 16.2174 54.2503 16.2174Z" fill="white"/>
<path d="M71.4755 13.2143C71.4755 13.5146 71.4755 13.8149 71.3729 14.2153H63.3275C63.5339 15.0162 63.8435 15.6168 64.4621 16.0173C64.9781 16.4176 65.6999 16.6179 66.5249 16.6179C67.6595 16.6179 68.5877 16.2174 69.3101 15.3165L71.0633 16.8181C70.0319 18.2196 68.4845 18.8202 66.4217 18.8202C64.7717 18.8202 63.4307 18.3196 62.3993 17.3186C61.3679 16.3176 60.8525 14.9161 60.8525 13.3144C60.8525 11.7127 61.3679 10.3112 62.3993 9.31015C63.4307 8.30911 64.6685 7.80859 66.2159 7.80859C67.8659 7.80859 69.1037 8.30911 70.1351 9.31015C71.0633 10.3112 71.4755 11.6126 71.4755 13.2143ZM68.0723 10.6116C67.6595 10.2111 67.0409 10.0109 66.3191 10.0109C65.5967 10.0109 64.9781 10.2111 64.4621 10.6116C63.9467 11.0119 63.6371 11.5125 63.4307 12.2132H68.8973C68.7941 11.6126 68.4845 11.0119 68.0723 10.6116Z" fill="#DAA520"/>
<path d="M79.212 7.80859H79.5216V10.6116C79.1088 10.6116 78.9024 10.6116 78.7992 10.6116C77.871 10.6116 77.1492 10.9119 76.6332 11.5125C76.1178 12.1131 75.8082 12.8139 75.8082 13.7148V18.8202H73.23V8.00881H75.8082V9.61045C76.6332 8.40919 77.7678 7.80859 79.212 7.80859Z" fill="#DAA520"/>
<path d="M87.0491 7.80859C88.5965 7.80859 89.8343 8.30911 90.8657 9.41029C91.8971 10.4113 92.4125 11.8128 92.4125 13.4145C92.4125 15.0162 91.8971 16.4176 90.8657 17.4187C89.8343 18.4198 88.5965 18.9203 87.0491 18.9203C85.5023 18.9203 84.3677 18.4198 83.5427 17.4187V23.1247H80.9639V8.00881H83.5427V9.31015C84.3677 8.30911 85.5023 7.80859 87.0491 7.80859ZM84.3677 15.7169C84.9863 16.3176 85.7087 16.6179 86.6369 16.6179C87.5651 16.6179 88.2869 16.3176 88.9061 15.7169C89.5247 15.1163 89.8343 14.3154 89.8343 13.4145C89.8343 12.4134 89.5247 11.6126 88.9061 11.0119C88.2869 10.3112 87.5651 10.0109 86.6369 10.0109C85.7087 10.0109 84.9863 10.3112 84.3677 11.0119C83.7491 11.6126 83.4395 12.4134 83.4395 13.4145C83.4395 14.4156 83.7491 15.1163 84.3677 15.7169Z" fill="#DAA520"/>
<path d="M21.0403 6.50601V16.4165C21.0403 16.917 20.731 17.5176 20.2153 17.7178L12.7892 21.8222L11.3453 22.7231C10.8296 23.0234 10.2107 23.0234 9.69504 22.7231L8.25114 21.9222L0.825114 17.8179C0.309417 17.4175 0 16.917 0 16.4165V6.50601C0 6.00549 0.309417 5.40484 0.825114 5.20462L9.69504 0.299456C10.2107 -0.000860289 10.8296 -0.000860289 11.3453 0.299456L20.2153 5.20462C20.731 5.40484 21.0403 5.90536 21.0403 6.50601Z" fill="#DAA520"/>
<path d="M10.1081 10.2082C9.28295 10.2082 8.56104 9.50746 8.56104 8.70664C8.56104 7.90582 9.28295 7.20508 10.1081 7.20508C10.9332 7.20508 11.6552 7.90582 11.6552 8.70664C11.6552 9.50746 10.9332 10.2082 10.1081 10.2082ZM10.1081 8.0059C9.69551 8.0059 9.38609 8.3062 9.38609 8.70664C9.38609 9.10708 9.69551 9.40738 10.1081 9.40738C10.5206 9.40738 10.8301 9.10708 10.8301 8.70664C10.7269 8.3062 10.4175 8.0059 10.1081 8.0059Z" fill="white"/>
<path d="M9.28151 8.30859H1.85547V9.10941H9.28151V8.30859Z" fill="white"/>
<path d="M9.90208 15.716C9.07696 15.716 8.35498 15.0153 8.35498 14.2145C8.35498 13.4136 9.07696 12.7129 9.90208 12.7129C10.7272 12.7129 11.4492 13.4136 11.4492 14.2145C11.4492 15.0153 10.7272 15.716 9.90208 15.716ZM9.90208 13.5137C9.48952 13.5137 9.1801 13.814 9.1801 14.2145C9.1801 14.6149 9.48952 14.9152 9.90208 14.9152C10.3146 14.9152 10.6241 14.6149 10.6241 14.2145C10.6241 13.814 10.3146 13.5137 9.90208 13.5137Z" fill="white"/>
<path d="M8.76581 13.8125H1.85547V14.6133H8.76581V13.8125Z" fill="white"/>
<path d="M12.8918 12.9133C12.0667 12.9133 11.3447 12.2126 11.3447 11.4117C11.3447 10.6109 12.0667 9.91016 12.8918 9.91016C13.7169 9.91016 14.4389 10.6109 14.4389 11.4117C14.4389 12.3127 13.7169 12.9133 12.8918 12.9133ZM12.8918 10.8111C12.4793 10.8111 12.1698 11.1114 12.1698 11.5119C12.1698 11.9122 12.4793 12.2126 12.8918 12.2126C13.3044 12.2126 13.6138 11.9122 13.6138 11.5119C13.6138 11.1114 13.3044 10.8111 12.8918 10.8111Z" fill="white"/>
<path d="M12.1694 11.0117H1.85547V11.8125H12.1694V11.0117Z" fill="white"/>
<path d="M17.637 12.511L18.2559 12.9114C18.2559 13.1116 18.1527 13.4119 18.0496 13.6121C17.9464 13.8123 17.8433 14.1127 17.7402 14.3128H17.0182C16.1931 14.3128 15.5743 15.1137 15.9868 15.9145L16.3993 16.5152C16.0899 16.9156 15.6774 17.2159 15.2649 17.5162L14.646 17.1158C13.924 16.6153 12.9958 17.1158 12.8926 18.0167V18.7175C12.3769 18.9177 11.8612 19.0178 11.3455 19.0178L11.0361 18.317C10.6236 17.6163 9.59222 17.5162 9.07652 18.217L8.66396 18.8176C8.45768 18.8176 8.14826 18.7175 7.94198 18.6174C7.7357 18.5173 7.42628 18.4172 7.22 18.317V17.6163C7.22 16.8155 6.29174 16.2149 5.56977 16.6153L4.84779 17.0157C4.43524 16.7154 4.12583 16.315 3.81641 15.9145L4.12583 15.414H7.22C8.2514 16.2149 9.2828 16.6153 10.3141 16.6153C13.4083 16.6153 15.8836 14.1127 15.6774 11.0093C15.4711 8.4066 13.3052 6.40452 10.6236 6.2043C9.48908 6.10422 8.2514 6.5046 7.32314 7.10526H4.74466C4.74466 7.00512 4.74466 6.90504 4.64152 6.90504L4.22896 6.2043C4.53838 5.80388 4.95093 5.50356 5.36349 5.20325L5.98233 5.60367C6.7043 6.10422 7.63256 5.60367 7.7357 4.70272V4.00198C8.2514 3.80177 8.7671 3.70167 9.2828 3.60156L9.59222 4.3023C10.0047 5.00304 11.1393 5.00304 11.5518 4.3023L11.9644 3.70167C12.1707 3.70167 12.4801 3.80177 12.6864 3.90187C12.9958 4.00198 13.2021 4.00198 13.5115 4.10209V4.80283C13.5115 5.60367 14.4397 6.2043 15.1617 5.80388L15.8836 5.40346C16.2962 5.70378 16.6056 6.10422 16.915 6.5046L16.5025 7.10526C15.9868 7.806 16.5025 8.70696 17.4307 8.70696H18.1527C18.359 9.20748 18.4621 9.708 18.4621 10.2085L17.7402 10.5088C17.0182 11.1095 16.915 12.1105 17.637 12.511Z" fill="white"/>
</g>
</g>
<defs>
<clipPath id="clip0_363_167">
<rect width="93" height="24" fill="white"/>
</clipPath>
</defs>
</svg>
